<?xml version="1.0" standalone="no"?>
<!DOCTYPE svg PUBLIC "-//W3C//DTD SVG 20010904//EN"
 "http://www.w3.org/TR/2001/REC-SVG-20010904/DTD/svg10.dtd">
<svg version="1.0" xmlns="http://www.w3.org/2000/svg"
 width="505.000000pt" height="362.000000pt" viewBox="0 0 505.000000 362.000000"
 preserveAspectRatio="xMidYMid meet">

<g transform="translate(0.000000,362.000000) scale(0.100000,-0.100000)"
fill="#000000" stroke="none">
<path d="M2574 2516 c-39 -18 -71 -58 -85 -108 -13 -52 -4 -92 32 -133 90
-102 259 -42 259 92 0 52 -10 79 -47 122 -24 28 -37 34 -78 37 -30 3 -63 -1
-81 -10z"/>
<path d="M1693 2444 c-191 -101 -193 -102 -193 -183 0 -35 -14 -87 -46 -173
-26 -68 -57 -152 -70 -188 -44 -118 -199 -440 -245 -506 -80 -116 -188 -140
-283 -62 -75 62 -193 270 -212 373 -8 50 -21 75 -37 75 -7 0 -33 -17 -58 -37
-26 -21 -74 -58 -108 -83 -34 -25 -64 -56 -67 -69 -8 -27 29 -208 58 -289 11
-29 30 -65 43 -80 49 -59 292 -142 412 -142 135 0 290 108 401 279 74 115 232
423 293 574 31 77 45 103 50 90 7 -19 27 -138 90 -548 6 -38 14 -108 18 -154
8 -75 18 -100 42 -101 13 0 72 49 197 164 l129 119 7 56 c27 249 50 410 70
486 20 79 24 87 34 69 6 -12 14 -41 18 -65 3 -24 13 -55 21 -68 14 -22 16 -22
31 -7 10 9 33 39 52 66 19 27 55 75 80 106 l45 57 0 111 c0 175 -28 206 -126
140 -30 -20 -71 -45 -92 -55 -102 -53 -130 -100 -213 -364 -45 -142 -51 -136
-53 55 -2 174 -7 191 -81 290 -66 90 -86 110 -106 110 -7 0 -53 -21 -101 -46z"/>
<path d="M2680 2169 c-47 -22 -113 -47 -148 -54 -35 -7 -69 -18 -76 -25 -21
-17 -38 -65 -34 -96 3 -26 7 -29 48 -34 l45 -5 5 -205 5 -205 38 -3 c45 -4
238 25 251 38 4 4 3 67 -3 142 -7 73 -14 207 -17 298 -6 170 -8 190 -21 190
-4 0 -46 -19 -93 -41z"/>
<path d="M3065 2192 c-45 -22 -140 -118 -155 -157 -6 -15 -10 -86 -10 -159 0
-123 2 -136 26 -185 65 -131 226 -176 371 -106 59 29 99 75 139 160 21 45 33
115 19 115 -3 0 -33 -22 -66 -50 -69 -57 -104 -63 -169 -30 -52 27 -61 47 -58
128 4 79 25 93 44 27 6 -23 18 -41 28 -43 19 -4 214 55 234 71 6 5 12 31 12
57 0 46 -3 51 -52 94 -69 60 -141 88 -243 93 -64 3 -88 0 -120 -15z"/>
<path d="M3796 2203 c-47 -3 -67 -10 -100 -36 -68 -51 -132 -130 -171 -211
-45 -89 -49 -150 -17 -212 47 -92 181 -173 300 -181 64 -5 71 -3 160 43 102
52 147 95 187 179 51 108 40 210 -30 293 -40 46 -41 53 -19 87 9 13 13 29 9
35 -6 10 -180 11 -319 3z m106 -170 c44 -48 68 -107 68 -170 0 -141 -98 -197
-196 -111 -70 61 -93 162 -54 238 26 52 55 70 110 70 38 0 51 -5 72 -27z"/>
<path d="M2214 1479 c-16 -17 -77 -74 -136 -126 -60 -52 -108 -99 -108 -104 0
-5 444 -9 1105 -9 l1105 0 0 135 0 135 -968 0 -968 0 -30 -31z m856 -99 c0
-53 -2 -60 -20 -60 -18 0 -20 7 -20 60 0 53 2 60 20 60 18 0 20 -7 20 -60z
m-680 40 c0 -5 -11 -10 -24 -10 -22 0 -25 -5 -28 -42 -2 -35 -7 -43 -23 -43
-16 0 -21 8 -23 43 -3 37 -6 42 -28 42 -13 0 -24 5 -24 10 0 6 32 10 75 10 43
0 75 -4 75 -10z m91 -29 c28 -23 22 -32 -28 -41 l-38 -8 38 -1 c38 -1 49 -14
21 -25 -44 -17 -104 8 -104 44 0 23 36 50 66 50 12 0 32 -9 45 -19z m127 1 c2
-7 -5 -12 -17 -12 -14 0 -21 -8 -23 -27 -2 -20 -9 -28 -23 -28 -16 0 -21 8
-23 37 -3 35 -1 37 30 41 43 5 51 3 56 -11z m112 2 c0 -3 -11 -9 -25 -14 -18
-7 -25 -17 -25 -35 0 -18 -5 -25 -20 -25 -17 0 -20 7 -20 39 0 37 2 40 33 43
32 3 57 0 57 -8z m94 6 c21 -8 26 -16 26 -44 0 -32 -3 -36 -33 -41 -38 -7 -87
9 -87 29 0 8 12 19 28 24 24 9 25 10 5 11 -25 1 -31 16 -10 24 20 9 44 8 71
-3z m160 0 c18 -6 26 -17 26 -33 0 -32 -18 -47 -57 -47 -23 0 -33 -5 -33 -15
0 -8 -9 -15 -20 -15 -18 0 -20 7 -20 54 l0 55 38 4 c20 2 38 4 39 5 1 1 13 -2
27 -8z m231 -4 c29 -21 12 -46 -32 -48 l-38 -1 45 -7 c45 -6 45 -6 18 -18 -55
-23 -118 10 -102 53 13 32 77 45 109 21z m146 4 c26 -15 28 -83 2 -78 -11 2
-19 14 -21 31 -4 37 -36 33 -40 -6 -2 -19 -9 -27 -23 -27 -16 0 -19 7 -19 39
0 37 2 40 33 44 17 2 36 5 40 5 5 1 17 -3 28 -8z m150 0 c13 -7 19 -21 19 -45
0 -33 -2 -34 -46 -41 -35 -5 -49 -3 -61 9 -23 23 -9 47 29 49 l33 1 -32 4
c-32 4 -40 12 -26 26 10 11 62 8 84 -3z m147 0 c22 0 22 -1 6 -25 -9 -14 -24
-25 -33 -26 -9 0 -1 -5 17 -10 60 -18 28 -52 -45 -47 l-48 3 0 43 c-1 23 2 46
5 51 8 13 34 20 55 16 11 -3 30 -5 43 -5z m147 -10 c23 -25 12 -37 -35 -43
l-35 -4 38 -1 c55 -3 45 -22 -11 -22 -71 0 -98 41 -50 74 31 22 71 20 93 -4z
m233 7 c6 -5 12 -24 12 -43 0 -27 -4 -34 -20 -34 -16 0 -20 7 -20 30 0 23 -4
30 -20 30 -16 0 -20 -7 -20 -30 0 -23 -5 -30 -19 -30 -14 0 -21 8 -23 27 -5
41 -36 43 -44 4 -5 -21 -12 -31 -25 -31 -15 0 -19 8 -19 39 0 37 2 40 33 43
58 5 152 2 165 -5z"/>
<path d="M2428 1373 c7 -3 16 -2 19 1 4 3 -2 6 -13 5 -11 0 -14 -3 -6 -6z"/>
<path d="M2768 1343 c6 -2 18 -2 25 0 6 3 1 5 -13 5 -14 0 -19 -2 -12 -5z"/>
<path d="M2914 1369 c-9 -15 12 -33 30 -26 9 4 16 13 16 22 0 17 -35 21 -46 4z"/>
<path d="M3158 1373 c7 -3 16 -2 19 1 4 3 -2 6 -13 5 -11 0 -14 -3 -6 -6z"/>
<path d="M3448 1343 c6 -2 18 -2 25 0 6 3 1 5 -13 5 -14 0 -19 -2 -12 -5z"/>
<path d="M3588 1373 c7 -3 16 -2 19 1 4 3 -2 6 -13 5 -11 0 -14 -3 -6 -6z"/>
<path d="M3588 1313 c6 -2 18 -2 25 0 6 3 1 5 -13 5 -14 0 -19 -2 -12 -5z"/>
<path d="M3735 1380 c-3 -5 1 -10 10 -10 9 0 13 5 10 10 -3 6 -8 10 -10 10 -2
0 -7 -4 -10 -10z"/>
</g>
</svg>
